<?xml version="1.0" encoding="UTF-8"?>
<svg width="100px" height="100px" viewBox="0 0 100 100" version="1.1" xmlns="http://www.w3.org/2000/svg" xmlns:xlink="http://www.w3.org/1999/xlink">
    <!-- Generator: sketchtool 64 (101010) - https://sketch.com -->
    <title>1E5A821D-8921-4DE2-977E-D66063216EBC</title>
    <desc>Created with sketchtool.</desc>
    <g id="Page-1" stroke="none" stroke-width="1" fill="none" fill-rule="evenodd">
        <g id="Log-in" transform="translate(-910.000000, -144.000000)" fill="#7F5AF0" fill-rule="nonzero">
            <path d="M1010,226.924023 C1010,229.081445 1008.25117,230.830273 1006.09375,230.830273 L996.830273,230.830273 L996.830273,240.09375 C996.830273,242.251172 995.081445,244 992.924023,244 C990.766602,244 989.017773,242.251172 989.017773,240.09375 L989.017773,230.830273 C984.404102,230.830273 971.31543,230.830273 966.584766,230.830273 C964.427344,230.830273 962.678516,229.081445 962.678516,226.924023 C962.678516,224.766602 964.427344,223.017773 966.584766,223.017773 C971.308008,223.017773 984.40293,223.017773 989.017773,223.017773 C989.017773,218.404102 989.017773,205.31543 989.017773,200.584766 C989.017773,198.427344 990.766602,196.678516 992.924023,196.678516 C995.081445,196.678516 996.830273,198.427344 996.830273,200.584766 C996.830273,205.308008 996.830273,218.40293 996.830273,223.017773 L1006.09375,223.017773 C1008.25117,223.017773 1010,224.766602 1010,226.924023 Z M940.245508,144 L913.90625,144 C911.748828,144 910,145.748828 910,147.90625 L910,174.245508 C910,176.40293 911.748828,178.151758 913.90625,178.151758 C916.063672,178.151758 917.8125,176.40293 917.8125,174.245508 L917.8125,151.8125 L940.245508,151.8125 C942.40293,151.8125 944.151758,150.063672 944.151758,147.90625 C944.151758,145.748828 942.40293,144 940.245508,144 Z M966.584766,151.8125 L989.017773,151.8125 L989.017773,174.245508 C989.017773,176.40293 990.766602,178.151758 992.924023,178.151758 C995.081445,178.151758 996.830273,176.40293 996.830273,174.245508 L996.830273,147.90625 C996.830273,145.748828 995.081445,144 992.924023,144 L966.584766,144 C964.427344,144 962.678516,145.748828 962.678516,147.90625 C962.678516,150.063672 964.427344,151.8125 966.584766,151.8125 Z M940.245508,223.017773 L917.8125,223.017773 L917.8125,200.584766 C917.8125,198.427344 916.063672,196.678516 913.90625,196.678516 C911.748828,196.678516 910,198.427344 910,200.584766 L910,226.924023 C910,229.081445 911.748828,230.830273 913.90625,230.830273 L940.245508,230.830273 C942.40293,230.830273 944.151758,229.081445 944.151758,226.924023 C944.151758,224.766602 942.40293,223.017773 940.245508,223.017773 Z M913.90625,193.274609 C916.063672,193.274609 917.8125,191.525781 917.8125,189.368359 L917.8125,185.462109 C917.8125,183.304688 916.063672,181.555859 913.90625,181.555859 C911.748828,181.555859 910,183.304688 910,185.462109 L910,189.368359 C910,191.525781 911.748828,193.274609 913.90625,193.274609 Z M992.924023,181.555859 C990.766602,181.555859 989.017773,183.304688 989.017773,185.462109 L989.017773,189.368359 C989.017773,191.525781 990.766602,193.274609 992.924023,193.274609 C995.081445,193.274609 996.830273,191.525781 996.830273,189.368359 L996.830273,185.462109 C996.830273,183.304688 995.081445,181.555859 992.924023,181.555859 Z M955.368359,144 L951.462109,144 C949.304688,144 947.555859,145.748828 947.555859,147.90625 C947.555859,150.063672 949.304688,151.8125 951.462109,151.8125 L955.368359,151.8125 C957.525781,151.8125 959.274609,150.063672 959.274609,147.90625 C959.274609,145.748828 957.525781,144 955.368359,144 Z M955.368359,223.017773 L951.462109,223.017773 C949.304688,223.017773 947.555859,224.766602 947.555859,226.924023 C947.555859,229.081445 949.304688,230.830273 951.462109,230.830273 L955.368359,230.830273 C957.525781,230.830273 959.274609,229.081445 959.274609,226.924023 C959.274609,224.766602 957.525781,223.017773 955.368359,223.017773 Z" id="Shape"></path>
        </g>
    </g>
</svg>